HIERARCHY
ROOT Hips
{
	OFFSET 0.00000 0.00000 0.00000
	CHANNELS 6 Xposition Yposition Zposition Zrotation Yrotation Xrotation 
	JOINT LHipJoint
	{
		OFFSET 0 0 0
		CHANNELS 3 Zrotation Yrotation Xrotation
		JOINT LeftUpLeg
		{
			OFFSET 1.09156 -1.61406 0.76500
			CHANNELS 3 Zrotation Yrotation Xrotation
			JOINT LeftLeg
			{
				OFFSET 2.33750 -6.42225 0.00000
				CHANNELS 3 Zrotation Yrotation Xrotation
				JOINT LeftFoot
				{
					OFFSET 2.49247 -6.84800 0.00000
					CHANNELS 3 Zrotation Yrotation Xrotation
					JOINT LeftToeBase
					{
						OFFSET 0.15312 -0.42069 1.45461
						CHANNELS 3 Zrotation Yrotation Xrotation
						End Site
						{
							OFFSET 0.00000 -0.00000 0.77046
						}
					}
				}
			}
		}
	}
	JOINT RHipJoint
	{
		OFFSET 0 0 0
		CHANNELS 3 Zrotation Yrotation Xrotation
		JOINT RightUpLeg
		{
			OFFSET -0.99883 -1.61406 0.76500
			CHANNELS 3 Zrotation Yrotation Xrotation
			JOINT RightLeg
			{
				OFFSET -2.36877 -6.50815 0.00000
				CHANNELS 3 Zrotation Yrotation Xrotation
				JOINT RightFoot
				{
					OFFSET -2.53452 -6.96353 0.00000
					CHANNELS 3 Zrotation Yrotation Xrotation
					JOINT RightToeBase
					{
						OFFSET -0.13156 -0.36145 1.63237
						CHANNELS 3 Zrotation Yrotation Xrotation
						End Site
						{
							OFFSET -0.00000 -0.00000 0.84979
						}
					}
				}
			}
		}
	}
	JOINT LowerBack
	{
		OFFSET 0 0 0
		CHANNELS 3 Zrotation Yrotation Xrotation
		JOINT Spine
		{
			OFFSET -0.02431 1.98242 -0.13616
			CHANNELS 3 Zrotation Yrotation Xrotation
			JOINT Spine1
			{
				OFFSET 0.03629 1.98974 -0.02954
				CHANNELS 3 Zrotation Yrotation Xrotation
				JOINT Neck
				{
					OFFSET 0 0 0
					CHANNELS 3 Zrotation Yrotation Xrotation
					JOINT Neck1
					{
						OFFSET 0.09349 1.40783 0.22333
						CHANNELS 3 Zrotation Yrotation Xrotation
						JOINT Head
						{
							OFFSET -0.04273 1.44500 -0.06495
							CHANNELS 3 Zrotation Yrotation Xrotation
							End Site
							{
								OFFSET -0.02251 1.44600 -0.04544
							}
						}
					}
				}
				JOINT LeftShoulder
				{
					OFFSET 0 0 0
					CHANNELS 3 Zrotation Yrotation Xrotation
					JOINT LeftArm
					{
						OFFSET 3.49137 0.85126 -0.29740
						CHANNELS 3 Zrotation Yrotation Xrotation
						JOINT LeftForeArm
						{
							OFFSET 5.06035 -0.00000 0.00000
							CHANNELS 3 Zrotation Yrotation Xrotation
							JOINT LeftHand
							{
								OFFSET 3.14780 -0.00000 0.00000
								CHANNELS 3 Zrotation Yrotation Xrotation
								JOINT LeftFingerBase
								{
									OFFSET 0 0 0
									CHANNELS 3 Zrotation Yrotation Xrotation
									JOINT LeftHandIndex1
									{
										OFFSET 0.60675 -0.00000 0.00000
										CHANNELS 3 Zrotation Yrotation Xrotation
										End Site
										{
											OFFSET 0.48918 -0.00000 0.00000
										}
									}
								}
								JOINT LThumb
								{
									OFFSET 0 0 0
									CHANNELS 3 Zrotation Yrotation Xrotation
									End Site
									{
										OFFSET 0.49664 -0.00000 0.49664
									}
								}
							}
						}
					}
				}
				JOINT RightShoulder
				{
					OFFSET 0 0 0
					CHANNELS 3 Zrotation Yrotation Xrotation
					JOINT RightArm
					{
						OFFSET -3.28101 0.69707 0.00747
						CHANNELS 3 Zrotation Yrotation Xrotation
						JOINT RightForeArm
						{
							OFFSET -5.12273 -0.00000 -0.00000
							CHANNELS 3 Zrotation Yrotation Xrotation
							JOINT RightHand
							{
								OFFSET -3.42200 -0.00000 0.00000
								CHANNELS 3 Zrotation Yrotation Xrotation
								JOINT RightFingerBase
								{
									OFFSET 0 0 0
									CHANNELS 3 Zrotation Yrotation Xrotation
									JOINT RightHandIndex1
									{
										OFFSET -0.70460 -0.00000 0.00000
										CHANNELS 3 Zrotation Yrotation Xrotation
										End Site
										{
											OFFSET -0.56807 -0.00000 0.00000
										}
									}
								}
								JOINT RThumb
								{
									OFFSET 0 0 0
									CHANNELS 3 Zrotation Yrotation Xrotation
									End Site
									{
										OFFSET -0.57674 -0.00000 0.57674
									}
								}
							}
						}
					}
				}
			}
		}
	}
}
MOTION
Frames: 6
Frame Time: .0083333
1.4990 16.1939 1.9841 -290.1260 93.8899 -285.8280 0.0000 0.0000 0.0000 -14.4331 -12.1778 -31.6018 5.3800 13.7993 42.4395 0.1931 -13.2004 -11.5303 1.6154 8.0143 22.7576 0.0000 0.0000 0.0000 27.6979 4.0503 1.8338 -0.6844 -5.2892 14.7353 -0.8650 -4.2229 -19.5881 -0.0024 -0.3163 0.8692 1.1510 1.5096 -1.3417 0.7208 1.9890 3.4155 0.2005 1.0317 4.2830 5.7982 -0.9879 -5.9825 -0.3653 -1.7884 6.4735 -1.2144 -0.7418 3.0839 0.0000 -0.0000 0.0000 -86.0574 -1.6284 4.6152 2.7808 -4.8033 -0.1167 -0.0000 -0.0000 4.9591 21.9075 46.2769 16.2054 -7.1250 0.0000 -0.0000 -35.2092 76.1963 -26.4388 0.0000 -0.0000 0.0000 85.4390 9.9664 24.0188 -15.8849 25.3643 -3.5965 0.0000 0.0000 1.7520 -26.6033 30.6211 -14.3112 7.1250 -0.0000 -0.0000 2.6664 3.4917 2.8269
1.6308 16.1958 1.9830 -289.9990 93.8419 -285.6620 0.0000 0.0000 0.0000 -14.4093 -12.2134 -31.8284 4.7297 13.0728 39.6415 0.1202 -13.4851 -10.8849 1.5837 7.9390 22.5291 0.0000 0.0000 0.0000 27.6404 3.3770 2.8264 -0.5615 -4.7995 13.3377 -0.8303 -4.1025 -19.1738 -0.0008 -0.1786 0.4908 1.1157 1.4749 -1.4266 0.6897 1.9463 3.6554 0.1937 1.0130 4.5807 5.5275 -0.9329 -6.8699 -0.2873 -1.7590 6.4999 -1.1526 -0.7311 3.2657 0.0000 0.0000 0.0000 -85.9041 -1.8574 4.3217 2.7343 -4.7233 -0.1128 -0.0000 -0.0000 4.6416 22.4973 46.4767 16.7152 -7.1250 0.0000 -0.0000 -35.1415 76.5719 -26.6460 0.0000 0.0000 0.0000 85.3051 10.6933 24.3869 -16.1461 25.7183 -3.7091 0.0000 0.0000 1.5515 -26.7733 31.0442 -14.5848 7.1250 -0.0000 -0.0000 2.6434 3.9752 2.8233
1.7629 16.1887 1.9851 -287.6390 93.7431 -283.1810 0.0000 0.0000 0.0000 -14.3767 -12.1152 -32.0682 4.1212 12.3200 36.8735 0.0920 -13.4414 -10.5347 1.3204 7.2777 20.5409 0.0000 0.0000 0.0000 27.5448 2.8200 3.8097 -0.4452 -4.2812 11.8690 -0.8101 -3.7443 -18.7590 -0.0025 -0.3226 0.8863 1.0268 1.5423 -1.5056 0.6003 2.0396 3.5664 0.1568 1.0562 4.5336 5.6199 -0.8266 -6.6520 -0.3034 -1.6080 6.3627 -1.1627 -0.6577 3.1812 -0.0000 0.0000 0.0000 -85.5607 -1.5770 4.1845 2.6039 -4.4992 -0.1023 -0.0000 -0.0000 4.2705 22.5386 46.7267 16.8127 -7.1250 0.0000 -0.0000 -35.8832 76.7650 -27.3711 -0.0000 0.0000 0.0000 85.3735 10.7531 24.5654 -16.4356 26.1077 -3.8356 0.0000 0.0000 1.3507 -26.7298 31.6665 -14.8089 7.1250 -0.0000 -0.0000 2.7783 4.6130 2.9961
1.8986 16.1808 1.9872 -287.0020 93.7961 -282.4540 0.0000 0.0000 0.0000 -14.2391 -12.0592 -32.2652 3.5643 11.5569 34.1821 0.0762 -13.3754 -10.3095 0.8472 5.8706 16.4094 0.0000 0.0000 0.0000 27.5911 2.3289 4.9677 -0.3341 -3.7145 10.2748 -0.7948 -3.4122 -18.4121 -0.0104 -0.6599 1.8134 1.0057 1.5378 -1.5592 0.5829 2.0335 3.5380 0.1514 1.0522 4.5343 5.6213 -0.7151 -6.7876 -0.3053 -1.4678 6.3105 -1.1584 -0.5895 3.1941 0.0000 -0.0000 0.0000 -85.2735 -1.4372 3.9737 2.4208 -4.1842 -0.0884 -0.0000 -0.0000 4.0658 22.2218 45.8940 16.3491 -7.1250 0.0000 -0.0000 -33.7093 76.0420 -25.1578 0.0000 -0.0000 0.0000 85.4169 10.9393 24.7066 -16.6648 26.4138 -3.9371 0.0000 0.0000 1.2226 -27.3593 31.2373 -15.0210 7.1250 -0.0000 -0.0000 2.3466 4.3237 2.5188
2.0360 16.1767 1.9868 -287.6800 93.7233 -283.0940 0.0000 0.0000 0.0000 -14.2151 -12.1285 -32.4012 3.0744 10.8145 31.6568 0.0285 -13.4054 -9.7585 0.5385 4.7017 13.0596 0.0000 0.0000 0.0000 27.4849 1.7533 6.4098 -0.2150 -2.9851 8.2374 -0.7360 -3.2698 -17.7140 -0.0194 -0.8992 2.4714 0.8084 1.5424 -1.5421 0.5154 2.0459 3.3076 0.1870 1.0498 4.2800 5.6805 -0.8624 -6.1784 -0.2776 -1.6258 5.9842 -1.1550 -0.6731 2.9600 0.0000 0.0000 0.0000 -84.9634 -0.6507 3.8994 2.4413 -4.2196 -0.0900 -0.0000 -0.0000 3.9859 22.3550 45.7964 16.4262 -7.1250 0.0000 -0.0000 -33.2692 76.0222 -24.8015 0.0000 0.0000 0.0000 85.4854 10.5831 24.8865 -16.9367 26.7742 -4.0588 0.0000 0.0000 0.9179 -27.2927 31.6130 -15.1344 7.1250 -0.0000 -0.0000 2.4523 4.6992 2.6473
2.1749 16.1768 1.9855 -286.4980 93.5193 -281.9050 0.0000 0.0000 0.0000 -14.2275 -12.1856 -32.4751 2.6577 10.1191 29.3632 -0.0354 -13.4044 -8.9603 0.4413 4.2626 11.8166 0.0000 0.0000 0.0000 27.2305 1.1070 8.4592 -0.0823 -1.8508 5.0934 -0.6035 -3.2958 -16.2423 -0.0241 -1.0032 2.7577 0.5634 1.4872 -1.6744 0.5026 1.9847 3.5960 0.3176 1.0137 4.6473 5.7135 -0.5499 -7.4456 -0.5151 -1.2889 6.4800 -1.2461 -0.5037 3.3860 0.0000 0.0000 0.0000 -84.8963 -0.9667 3.4454 2.3658 -4.0896 -0.0845 -0.0000 -0.0000 3.9313 22.8254 46.3816 16.9459 -7.1250 0.0000 -0.0000 -34.4640 76.6341 -26.1514 0.0000 0.0000 0.0000 85.3242 11.3523 25.3455 -17.0955 26.9835 -4.1306 0.0000 0.0000 0.5976 -27.7653 31.6406 -15.4390 7.1250 -0.0000 -0.0000 2.1919 4.8492 2.3711
